<svg width="17" height="16" viewBox="0 0 17 16" fill="none" xmlns="http://www.w3.org/2000/svg">
<mask id="mask0_1608_8080" style="mask-type:luminance" maskUnits="userSpaceOnUse" x="0" y="0" width="17" height="16">
<path d="M14.1638 9.27193C14.0643 9.27193 13.9835 9.19116 13.9835 9.0916C13.9835 8.99205 14.0643 8.91174 14.1638 8.91174C14.2634 8.91174 14.3437 8.99252 14.3437 9.0916C14.3437 9.19069 14.2629 9.27193 14.1638 9.27193ZM14.1638 7.08591C14.2634 7.08591 14.3437 7.00514 14.3437 6.90605C14.3437 6.80696 14.2629 6.72572 14.1638 6.72572C14.0647 6.72572 13.9835 6.80649 13.9835 6.90605C13.9835 7.00561 14.0643 7.08591 14.1638 7.08591ZM12.2718 7.81944C12.3713 7.81944 12.4516 7.90021 12.4516 7.9993C12.4516 8.09838 12.3709 8.17963 12.2718 8.17963C12.1727 8.17963 12.0915 8.09885 12.0915 7.9993C12.0915 7.89974 12.1722 7.81944 12.2718 7.81944ZM10.1905 2.19025C10.1905 2.28981 10.2713 2.37011 10.3703 2.37011C10.4694 2.37011 10.5502 2.28981 10.5502 2.19025C10.5502 2.09069 10.4694 2.01039 10.3703 2.01039C10.2713 2.01039 10.1905 2.09116 10.1905 2.19025ZM12.0919 3.98462C12.0919 4.08418 12.1727 4.16448 12.2723 4.16448C12.3718 4.16448 12.4521 4.08371 12.4521 3.98462C12.4521 3.88553 12.3713 3.80476 12.2723 3.80476C12.1732 3.80476 12.0919 3.88553 12.0919 3.98462ZM10.1905 13.8083C10.1905 13.9079 10.2713 13.9882 10.3703 13.9882C10.4694 13.9882 10.5502 13.9074 10.5502 13.8083C10.5502 13.7093 10.4694 13.6285 10.3703 13.6285C10.2713 13.6285 10.1905 13.7093 10.1905 13.8083ZM12.0919 12.014C12.0919 12.1135 12.1727 12.1943 12.2723 12.1943C12.3718 12.1943 12.4521 12.1135 12.4521 12.014C12.4521 11.9144 12.3713 11.8341 12.2723 11.8341C12.1732 11.8341 12.0919 11.9149 12.0919 12.014ZM2.19823 9.27193C2.29779 9.27193 2.37856 9.19116 2.37856 9.0916C2.37856 8.99205 2.29779 8.91174 2.19823 8.91174C2.09868 8.91174 2.01837 8.99252 2.01837 9.0916C2.01837 9.19069 2.09915 9.27193 2.19823 9.27193ZM2.19823 7.08591C2.09868 7.08591 2.01837 7.00514 2.01837 6.90605C2.01837 6.80696 2.09915 6.72572 2.19823 6.72572C2.29732 6.72572 2.37856 6.80649 2.37856 6.90605C2.37856 7.00561 2.29779 7.08591 2.19823 7.08591ZM4.09028 7.81944C3.99073 7.81944 3.91042 7.90021 3.91042 7.9993C3.91042 8.09838 3.99119 8.17963 4.09028 8.17963C4.18937 8.17963 4.27061 8.09885 4.27061 7.9993C4.27061 7.89974 4.18984 7.81944 4.09028 7.81944ZM6.17158 2.19025C6.17158 2.28981 6.09081 2.37011 5.99125 2.37011C5.8917 2.37011 5.81139 2.28981 5.81139 2.19025C5.81139 2.09069 5.89217 2.01039 5.99125 2.01039C6.09034 2.01039 6.17158 2.09116 6.17158 2.19025ZM4.27061 3.98462C4.27061 4.08418 4.18984 4.16448 4.09028 4.16448C3.99073 4.16448 3.91042 4.08371 3.91042 3.98462C3.91042 3.88553 3.99119 3.80476 4.09028 3.80476C4.18937 3.80476 4.27061 3.88553 4.27061 3.98462ZM6.17158 13.8083C6.17158 13.9079 6.09081 13.9882 5.99125 13.9882C5.8917 13.9882 5.81139 13.9074 5.81139 13.8083C5.81139 13.7093 5.89217 13.6285 5.99125 13.6285C6.09034 13.6285 6.17158 13.7093 6.17158 13.8083ZM4.27061 12.014C4.27061 12.1135 4.18984 12.1943 4.09028 12.1943C3.99073 12.1943 3.91042 12.1135 3.91042 12.014C3.91042 11.9144 3.99119 11.8341 4.09028 11.8341C4.18937 11.8341 4.27061 11.9149 4.27061 12.014ZM7.87438 1.09278V5.46154L7.72082 5.55029L7.56726 5.63905L6.77456 6.09645L5.82877 6.6426L5.67521 6.73136V9.26865L5.82877 9.3574L6.77456 9.90355L7.56726 10.361L7.72082 10.4497L7.87438 10.5385V14.9072L7.08168 15.3651L6.13542 15.9117L5.9828 16L5.83018 15.9117L4.88392 15.3656L4.39694 15.0843V12.3897C4.50541 12.3009 4.57445 12.1661 4.57445 12.0149C4.57445 11.7477 4.35749 11.5307 4.09028 11.5307C3.82308 11.5307 3.60612 11.7472 3.60612 12.0149C3.60612 12.1657 3.67515 12.3009 3.78363 12.3897V14.7302C3.20413 14.3958 2.62464 14.0619 2.04514 13.7271L1.89158 13.6383V11.8088C2.62511 11.3852 3.35722 10.9616 4.09028 10.538L4.88392 10.9963L5.67521 11.4533V13.443C5.57236 13.5317 5.50709 13.6632 5.50709 13.8098C5.50709 14.077 5.72405 14.2939 5.99125 14.2939C6.25846 14.2939 6.47542 14.077 6.47542 13.8098C6.47542 13.6543 6.40263 13.5162 6.28898 13.428V11.1025L6.13448 11.0132L5.18869 10.4671L4.39741 10.0102V8.37592C4.50588 8.28716 4.57492 8.15239 4.57492 8.00117C4.57492 7.73397 4.35796 7.51701 4.09075 7.51701C3.82354 7.51701 3.60659 7.73397 3.60659 8.00117C3.60659 8.15239 3.67562 8.28716 3.7841 8.37592V10.0102C3.05198 10.4328 2.31986 10.855 1.58727 11.2776L1.10076 10.9968L0.154501 10.4506L0 10.3614V8.17728C0.571982 8.50741 1.14772 8.83895 1.72064 9.17003C1.75727 9.40108 1.95732 9.57765 2.1987 9.57765C2.46591 9.57765 2.68287 9.36069 2.68287 9.09348C2.68287 8.82627 2.46591 8.60932 2.1987 8.60932C2.13765 8.60932 2.07989 8.62059 2.02589 8.64078C1.35059 8.25054 0.675296 7.86029 0 7.47052V5.63999L0.153562 5.55123L1.09935 5.00508H1.10076L1.58727 4.72425C2.24472 5.1037 2.13859 5.04265 2.9914 5.5348L3.47744 5.81562C3.10833 6.02882 2.74063 6.24155 2.37152 6.45476C2.31798 6.43456 2.25975 6.42329 2.1987 6.42329C1.9315 6.42329 1.71454 6.63978 1.71454 6.90746C1.71454 7.17513 1.9315 7.39162 2.1987 7.39162C2.44008 7.39162 2.64013 7.21505 2.67676 6.984C3.04587 6.7708 3.41499 6.55854 3.78363 6.34534C4.25183 6.07531 4.72049 5.80529 5.18869 5.5348L6.13448 4.98864L6.28898 4.89942V2.57345C6.40263 2.48469 6.47542 2.34663 6.47542 2.19166C6.47542 1.92445 6.25893 1.70749 5.99125 1.70749C5.72358 1.70749 5.50709 1.92445 5.50709 2.19166C5.50709 2.33818 5.57236 2.46967 5.67521 2.55842V4.54815L4.88392 5.00508L4.39694 5.28637V5.28496L4.08934 5.46248L3.29758 5.00508C2.82892 4.73458 2.36025 4.46362 1.89158 4.19313V2.3626L2.04514 2.27384L2.99093 1.72769H2.99187L3.78316 1.27076V3.61128C3.67468 3.70004 3.60565 3.83482 3.60565 3.98603C3.60565 4.25324 3.82261 4.47019 4.08981 4.47019C4.35702 4.47019 4.57398 4.25324 4.57398 3.98603C4.57398 3.83529 4.50495 3.70051 4.39647 3.61128V0.915735L4.88345 0.63444L5.83018 0.0882862L5.9828 0L6.13542 0.0882862L7.08168 0.63444L7.87438 1.09278ZM8.48769 6.16689L10.0731 7.08215V8.99721L8.48769 9.91248L8.18056 10.0895L7.87391 9.91248L6.28898 8.99721V7.08215L7.87391 6.16689L8.18056 5.98984L8.48769 6.16689ZM8.48769 1.09278V5.46154L8.64125 5.55029L8.79481 5.63905L9.58751 6.09645L10.5333 6.6426L10.6869 6.73136V9.26865L10.5333 9.3574L9.58751 9.90355L8.79481 10.361L8.64125 10.4497L8.48769 10.5385V14.9072L9.28039 15.3651L10.2262 15.9117L10.3793 16L10.5319 15.9117L11.4781 15.3656L11.9651 15.0843V12.3897C11.8567 12.3009 11.7876 12.1661 11.7876 12.0149C11.7876 11.7477 12.0046 11.5307 12.2718 11.5307C12.539 11.5307 12.7559 11.7472 12.7559 12.0149C12.7559 12.1657 12.6869 12.3009 12.5784 12.3897V14.7302C13.1579 14.3958 13.7374 14.0619 14.3169 13.7271L14.4705 13.6383V11.8088C13.737 11.3852 13.0048 10.9616 12.2718 10.538L11.4781 10.9963L10.6869 11.4533V13.443C10.7897 13.5317 10.855 13.6632 10.855 13.8098C10.855 14.077 10.6385 14.2939 10.3708 14.2939C10.1031 14.2939 9.88665 14.077 9.88665 13.8098C9.88665 13.6543 9.95944 13.5162 10.0731 13.428V11.1025L10.2276 11.0132L11.1734 10.4671L11.9647 10.0102V8.37592C11.8562 8.28716 11.7871 8.15239 11.7871 8.00117C11.7871 7.73397 12.0041 7.51701 12.2713 7.51701C12.5385 7.51701 12.7555 7.73397 12.7555 8.00117C12.7555 8.15239 12.6864 8.28716 12.578 8.37592V10.0102C13.3101 10.4328 14.0422 10.855 14.7748 11.2776L15.2613 10.9968L16.2076 10.4506L16.3621 10.3614V8.17728C15.7901 8.50741 15.2143 8.83895 14.6414 9.17003C14.6048 9.40108 14.4047 9.57765 14.1634 9.57765C13.8962 9.57765 13.6792 9.36069 13.6792 9.09348C13.6792 8.82627 13.8962 8.60932 14.1634 8.60932C14.2244 8.60932 14.2822 8.62059 14.3362 8.64078C15.0115 8.25054 15.6868 7.86029 16.3621 7.47052V5.63999L16.2085 5.55123L15.2627 5.00508H15.2613L14.7748 4.72425C14.1173 5.1037 14.2235 5.04265 13.3707 5.5348L12.8846 5.81562C13.2537 6.02882 13.6214 6.24155 13.9905 6.45476C14.0441 6.43456 14.1023 6.42329 14.1634 6.42329C14.4306 6.42329 14.6475 6.63978 14.6475 6.90746C14.6475 7.17513 14.4306 7.39162 14.1634 7.39162C13.922 7.39162 13.7219 7.21505 13.6853 6.984C13.3162 6.7708 12.9471 6.55854 12.5784 6.34534C12.1102 6.07531 11.6416 5.80529 11.1734 5.5348L10.2276 4.98864L10.0731 4.89942V2.57345C9.95944 2.48469 9.88665 2.34663 9.88665 2.19166C9.88665 1.92445 10.1031 1.70749 10.3708 1.70749C10.6385 1.70749 10.855 1.92445 10.855 2.19166C10.855 2.33818 10.7897 2.46967 10.6869 2.55842V4.54815L11.4781 5.00508L11.9651 5.28637V5.28496L12.2727 5.46248L13.0645 5.00508C13.5331 4.73458 14.0018 4.46362 14.4705 4.19313V2.3626L14.3169 2.27384L13.3711 1.72769H13.3702L12.5789 1.27076V3.61128C12.6874 3.70004 12.7564 3.83482 12.7564 3.98603C12.7564 4.25324 12.5395 4.47019 12.2723 4.47019C12.005 4.47019 11.7881 4.25324 11.7881 3.98603C11.7881 3.83529 11.8571 3.70051 11.9656 3.61128V0.915735L11.4786 0.63444L10.5324 0.0882862L10.3797 0L10.2266 0.0882862L9.28085 0.63444L8.48769 1.09278Z" fill="white"/>
</mask>
<g mask="url(#mask0_1608_8080)">
<path d="M16.3628 0H-0.000244141V15.9986H16.3628V0Z" fill="#4141EE"/>
</g>
</svg>
