<svg width="24" height="24" viewBox="0 0 24 24" fill="none" xmlns="http://www.w3.org/2000/svg">
<path d="M13.5424 10.2072C13.5329 10.1611 13.4671 10.1611 13.4577 10.2072C12.9687 12.5993 11.0993 14.4687 8.70719 14.9576C8.6611 14.9671 8.6611 15.0329 8.70719 15.0423C11.0993 15.5313 12.9687 17.4007 13.4577 19.7928C13.4671 19.8389 13.5329 19.8389 13.5424 19.7928C14.0313 17.4007 15.9007 15.5313 18.2928 15.0423C18.3389 15.0329 18.3389 14.9671 18.2928 14.9576C15.9007 14.4687 14.0313 12.5993 13.5424 10.2072Z" fill="#4141EE"/>
<path d="M8.75606 5.15314C8.6304 4.61855 7.8695 4.61855 7.74384 5.15314L7.73168 5.20489C7.45402 6.38617 6.50016 7.28899 5.30541 7.50134C4.74832 7.60035 4.74832 8.39956 5.30541 8.49858C6.50016 8.71092 7.45402 9.61374 7.73168 10.795L7.74384 10.8468C7.8695 11.3814 8.6304 11.3814 8.75606 10.8468L8.76822 10.795C9.04588 9.61374 9.99974 8.71092 11.1945 8.49858C11.7516 8.39956 11.7516 7.60035 11.1945 7.50134C9.99974 7.28899 9.04588 6.38617 8.76822 5.20489L8.75606 5.15314Z" fill="#8383E0"/>
</svg>
