<svg width="16" height="16" viewBox="0 0 16 16" fill="none" xmlns="http://www.w3.org/2000/svg">
<path d="M14.6667 4V5.61334C14.6667 6.66667 14.0001 7.33334 12.9467 7.33334H10.6667V2.67334C10.6667 1.93334 11.2734 1.33334 12.0134 1.33334C12.7401 1.34 13.4068 1.63334 13.8868 2.11334C14.3668 2.6 14.6667 3.26667 14.6667 4Z" stroke="#51515B" stroke-miterlimit="10" stroke-linecap="round" stroke-linejoin="round"/>
<path d="M1.33325 4.66667V14C1.33325 14.5533 1.9599 14.8667 2.3999 14.5333L3.53992 13.68C3.80658 13.48 4.17992 13.5067 4.41992 13.7467L5.52657 14.86C5.78657 15.12 6.21327 15.12 6.47327 14.86L7.59326 13.74C7.8266 13.5067 8.19992 13.48 8.45992 13.68L9.59994 14.5333C10.0399 14.86 10.6666 14.5467 10.6666 14V2.66667C10.6666 1.93334 11.2666 1.33334 11.9999 1.33334H4.66659H3.99992C1.99992 1.33334 1.33325 2.52667 1.33325 4V4.66667Z" stroke="#51515B" stroke-miterlimit="10" stroke-linecap="round" stroke-linejoin="round"/>
<path d="M4 6H8" stroke="#51515B" stroke-linecap="round" stroke-linejoin="round"/>
<path d="M4.5 8.66666H7.5" stroke="#51515B" stroke-linecap="round" stroke-linejoin="round"/>
</svg>
