<svg width="239" height="72" viewBox="0 0 239 72" fill="none" xmlns="http://www.w3.org/2000/svg">
<rect width="239" height="72" fill="#F7F9FF"/>
<mask id="mask0_2081_3987" style="mask-type:luminance" maskUnits="userSpaceOnUse" x="40" y="23" width="27" height="26">
<path d="M63.0162 38.0669C62.8544 38.0669 62.7232 37.9356 62.7232 37.7739C62.7232 37.6121 62.8544 37.4816 63.0162 37.4816C63.178 37.4816 63.3085 37.6128 63.3085 37.7739C63.3085 37.9349 63.1772 38.0669 63.0162 38.0669ZM63.0162 34.5146C63.178 34.5146 63.3085 34.3833 63.3085 34.2223C63.3085 34.0613 63.1772 33.9293 63.0162 33.9293C62.8552 33.9293 62.7232 34.0605 62.7232 34.2223C62.7232 34.3841 62.8544 34.5146 63.0162 34.5146ZM59.9416 35.7066C60.1034 35.7066 60.2339 35.8378 60.2339 35.9989C60.2339 36.1599 60.1027 36.2919 59.9416 36.2919C59.7806 36.2919 59.6486 36.1606 59.6486 35.9989C59.6486 35.8371 59.7799 35.7066 59.9416 35.7066ZM56.5595 26.5592C56.5595 26.7209 56.6908 26.8514 56.8518 26.8514C57.0128 26.8514 57.1441 26.7209 57.1441 26.5592C57.1441 26.3974 57.0128 26.2669 56.8518 26.2669C56.6908 26.2669 56.5595 26.3981 56.5595 26.5592ZM59.6494 29.475C59.6494 29.6368 59.7806 29.7673 59.9424 29.7673C60.1042 29.7673 60.2347 29.636 60.2347 29.475C60.2347 29.314 60.1034 29.1827 59.9424 29.1827C59.7814 29.1827 59.6494 29.314 59.6494 29.475ZM56.5595 45.4386C56.5595 45.6003 56.6908 45.7308 56.8518 45.7308C57.0128 45.7308 57.1441 45.5996 57.1441 45.4386C57.1441 45.2775 57.0128 45.1463 56.8518 45.1463C56.6908 45.1463 56.5595 45.2775 56.5595 45.4386ZM59.6494 42.5227C59.6494 42.6845 59.7806 42.8157 59.9424 42.8157C60.1042 42.8157 60.2347 42.6845 60.2347 42.5227C60.2347 42.3609 60.1034 42.2304 59.9424 42.2304C59.7814 42.2304 59.6494 42.3617 59.6494 42.5227ZM43.5721 38.0669C43.7339 38.0669 43.8652 37.9356 43.8652 37.7739C43.8652 37.6121 43.7339 37.4816 43.5721 37.4816C43.4103 37.4816 43.2799 37.6128 43.2799 37.7739C43.2799 37.9349 43.4111 38.0669 43.5721 38.0669ZM43.5721 34.5146C43.4103 34.5146 43.2799 34.3833 43.2799 34.2223C43.2799 34.0613 43.4111 33.9293 43.5721 33.9293C43.7331 33.9293 43.8652 34.0605 43.8652 34.2223C43.8652 34.3841 43.7339 34.5146 43.5721 34.5146ZM46.6467 35.7066C46.4849 35.7066 46.3544 35.8378 46.3544 35.9989C46.3544 36.1599 46.4857 36.2919 46.6467 36.2919C46.8077 36.2919 46.9397 36.1606 46.9397 35.9989C46.9397 35.8371 46.8085 35.7066 46.6467 35.7066ZM50.0288 26.5592C50.0288 26.7209 49.8976 26.8514 49.7358 26.8514C49.574 26.8514 49.4435 26.7209 49.4435 26.5592C49.4435 26.3974 49.5748 26.2669 49.7358 26.2669C49.8968 26.2669 50.0288 26.3981 50.0288 26.5592ZM46.9397 29.475C46.9397 29.6368 46.8085 29.7673 46.6467 29.7673C46.4849 29.7673 46.3544 29.636 46.3544 29.475C46.3544 29.314 46.4857 29.1827 46.6467 29.1827C46.8077 29.1827 46.9397 29.314 46.9397 29.475ZM50.0288 45.4386C50.0288 45.6003 49.8976 45.7308 49.7358 45.7308C49.574 45.7308 49.4435 45.5996 49.4435 45.4386C49.4435 45.2775 49.5748 45.1463 49.7358 45.1463C49.8968 45.1463 50.0288 45.2775 50.0288 45.4386ZM46.9397 42.5227C46.9397 42.6845 46.8085 42.8157 46.6467 42.8157C46.4849 42.8157 46.3544 42.6845 46.3544 42.5227C46.3544 42.3609 46.4857 42.2304 46.6467 42.2304C46.8077 42.2304 46.9397 42.3617 46.9397 42.5227ZM52.7959 24.7758V31.875L52.5463 32.0192L52.2968 32.1635L51.0087 32.9067L49.4717 33.7942L49.2222 33.9385V38.0615L49.4717 38.2058L51.0087 39.0933L52.2968 39.8365L52.5463 39.9808L52.7959 40.125V47.2242L51.5077 47.9683L49.9701 48.8565L49.7221 49L49.474 48.8565L47.9364 47.969L47.145 47.5119V43.1332C47.3213 42.989 47.4335 42.77 47.4335 42.5242C47.4335 42.09 47.0809 41.7375 46.6467 41.7375C46.2125 41.7375 45.8599 42.0893 45.8599 42.5242C45.8599 42.7692 45.9721 42.989 46.1484 43.1332V46.9365C45.2067 46.3932 44.265 45.8506 43.3234 45.3065L43.0738 45.1623V42.1892C44.2658 41.5009 45.4555 40.8126 46.6467 40.1242L47.9364 40.869L49.2222 41.6115V44.8449C49.0551 44.9891 48.949 45.2028 48.949 45.4408C48.949 45.8751 49.3016 46.2276 49.7358 46.2276C50.17 46.2276 50.5226 45.8751 50.5226 45.4408C50.5226 45.1883 50.4043 44.9639 50.2196 44.8204V41.0415L49.9685 40.8965L48.4316 40.009L47.1458 39.2665V36.6109C47.3221 36.4666 47.4342 36.2476 47.4342 36.0019C47.4342 35.5677 47.0817 35.2151 46.6475 35.2151C46.2133 35.2151 45.8607 35.5677 45.8607 36.0019C45.8607 36.2476 45.9729 36.4666 46.1492 36.6109V39.2665C44.9595 39.9533 43.7698 40.6393 42.5793 41.3261L41.7887 40.8698L40.2511 39.9823L40 39.8373V36.2881C40.9295 36.8245 41.865 37.3633 42.796 37.9013C42.8556 38.2767 43.1807 38.5637 43.5729 38.5637C44.0071 38.5637 44.3597 38.2111 44.3597 37.7769C44.3597 37.3427 44.0071 36.9901 43.5729 36.9901C43.4737 36.9901 43.3798 37.0085 43.2921 37.0413C42.1947 36.4071 41.0974 35.773 40 35.1396V32.165L40.2495 32.0208L41.7864 31.1333H41.7887L42.5793 30.6769C43.6477 31.2935 43.4752 31.1943 44.861 31.994L45.6508 32.4504C45.051 32.7968 44.4535 33.1425 43.8537 33.489C43.7667 33.4562 43.6721 33.4378 43.5729 33.4378C43.1387 33.4378 42.7861 33.7896 42.7861 34.2246C42.7861 34.6596 43.1387 35.0114 43.5729 35.0114C43.9651 35.0114 44.2902 34.7245 44.3497 34.349C44.9495 34.0026 45.5494 33.6576 46.1484 33.3112C46.9092 32.8724 47.6708 32.4336 48.4316 31.994L49.9685 31.1065L50.2196 30.9616V27.1819C50.4043 27.0376 50.5226 26.8133 50.5226 26.5614C50.5226 26.1272 50.1708 25.7747 49.7358 25.7747C49.3008 25.7747 48.949 26.1272 48.949 26.5614C48.949 26.7995 49.0551 27.0132 49.2222 27.1574V30.3907L47.9364 31.1333L47.145 31.5904V31.5881L46.6452 31.8765L45.3586 31.1333C44.597 30.6937 43.8354 30.2534 43.0738 29.8138V26.8392L43.3234 26.695L44.8603 25.8075H44.8618L46.1476 25.065V28.8683C45.9714 29.0126 45.8592 29.2316 45.8592 29.4773C45.8592 29.9115 46.2117 30.2641 46.6459 30.2641C47.0802 30.2641 47.4327 29.9115 47.4327 29.4773C47.4327 29.2323 47.3205 29.0133 47.1443 28.8683V24.4881L47.9356 24.031L49.474 23.1435L49.7221 23L49.9701 23.1435L51.5077 24.031L52.7959 24.7758ZM53.7925 33.0212L56.3688 34.5085V37.6205L53.7925 39.1078L53.2934 39.3955L52.7951 39.1078L50.2196 37.6205V34.5085L52.7951 33.0212L53.2934 32.7335L53.7925 33.0212ZM53.7925 24.7758V31.875L54.042 32.0192L54.2916 32.1635L55.5797 32.9067L57.1166 33.7942L57.3661 33.9385V38.0615L57.1166 38.2058L55.5797 39.0933L54.2916 39.8365L54.042 39.9808L53.7925 40.125V47.2242L55.0806 47.9683L56.6175 48.8565L56.8663 49L57.1143 48.8565L58.652 47.969L59.4433 47.5119V43.1332C59.2671 42.989 59.1549 42.77 59.1549 42.5242C59.1549 42.09 59.5074 41.7375 59.9416 41.7375C60.3759 41.7375 60.7284 42.0893 60.7284 42.5242C60.7284 42.7692 60.6162 42.989 60.44 43.1332V46.9365C61.3816 46.3932 62.3233 45.8506 63.265 45.3065L63.5145 45.1623V42.1892C62.3226 41.5009 61.1329 40.8126 59.9416 40.1242L58.652 40.869L57.3661 41.6115V44.8449C57.5333 44.9891 57.6393 45.2028 57.6393 45.4408C57.6393 45.8751 57.2875 46.2276 56.8526 46.2276C56.4176 46.2276 56.0658 45.8751 56.0658 45.4408C56.0658 45.1883 56.1841 44.9639 56.3688 44.8204V41.0415L56.6198 40.8965L58.1567 40.009L59.4426 39.2665V36.6109C59.2663 36.4666 59.1541 36.2476 59.1541 36.0019C59.1541 35.5677 59.5067 35.2151 59.9409 35.2151C60.3751 35.2151 60.7277 35.5677 60.7277 36.0019C60.7277 36.2476 60.6155 36.4666 60.4392 36.6109V39.2665C61.6289 39.9533 62.8186 40.6393 64.009 41.3261L64.7996 40.8698L66.3373 39.9823L66.5884 39.8373V36.2881C65.6589 36.8245 64.7233 37.3633 63.7923 37.9013C63.7328 38.2767 63.4077 38.5637 63.0155 38.5637C62.5813 38.5637 62.2287 38.2111 62.2287 37.7769C62.2287 37.3427 62.5813 36.9901 63.0155 36.9901C63.1147 36.9901 63.2085 37.0085 63.2963 37.0413C64.3936 36.4071 65.491 35.773 66.5884 35.1396V32.165L66.3388 32.0208L64.8019 31.1333H64.7996L64.009 30.6769C62.9407 31.2935 63.1131 31.1943 61.7273 31.994L60.9375 32.4504C61.5373 32.7968 62.1348 33.1425 62.7346 33.489C62.8216 33.4562 62.9163 33.4378 63.0155 33.4378C63.4497 33.4378 63.8022 33.7896 63.8022 34.2246C63.8022 34.6596 63.4497 35.0114 63.0155 35.0114C62.6232 35.0114 62.2981 34.7245 62.2386 34.349C61.6388 34.0026 61.039 33.6576 60.44 33.3112C59.6791 32.8724 58.9176 32.4336 58.1567 31.994L56.6198 31.1065L56.3688 30.9616V27.1819C56.1841 27.0376 56.0658 26.8133 56.0658 26.5614C56.0658 26.1272 56.4176 25.7747 56.8526 25.7747C57.2875 25.7747 57.6393 26.1272 57.6393 26.5614C57.6393 26.7995 57.5333 27.0132 57.3661 27.1574V30.3907L58.652 31.1333L59.4433 31.5904V31.5881L59.9432 31.8765L61.2298 31.1333C61.9914 30.6937 62.753 30.2534 63.5145 29.8138V26.8392L63.265 26.695L61.7281 25.8075H61.7266L60.4407 25.065V28.8683C60.617 29.0126 60.7292 29.2316 60.7292 29.4773C60.7292 29.9115 60.3766 30.2641 59.9424 30.2641C59.5082 30.2641 59.1556 29.9115 59.1556 29.4773C59.1556 29.2323 59.2678 29.0133 59.4441 28.8683V24.4881L58.6528 24.031L57.1151 23.1435L56.8671 23L56.6183 23.1435L55.0814 24.031L53.7925 24.7758Z" fill="white"/>
</mask>
<g mask="url(#mask0_2081_3987)">
<path d="M66.5896 23H39.9998V48.9977H66.5896V23Z" fill="#4141EE"/>
</g>
<path d="M158.254 48.3668V35.5352H170.034V37.6916H160.41V40.8639H168.163V43.0381H160.41V46.2104H170.034V48.3668H158.254Z" fill="#070614"/>
<path d="M152.399 48.3666L148.46 43.6616H151.258L154.805 47.8676V48.3666H152.399ZM142.026 48.3666V35.5527H152.452C152.892 35.5527 153.29 35.6656 153.646 35.8913C154.014 36.1052 154.306 36.3963 154.519 36.7646C154.745 37.1211 154.858 37.5191 154.858 37.9587V41.4874C154.858 41.9151 154.745 42.3131 154.519 42.6814C154.306 43.0498 154.014 43.3409 153.646 43.5547C153.29 43.7686 152.892 43.8755 152.452 43.8755L144.165 43.8933V48.3666H142.026ZM144.486 41.7191H152.363C152.458 41.7191 152.535 41.6894 152.595 41.63C152.666 41.5706 152.702 41.4933 152.702 41.3983V38.0121C152.702 37.929 152.666 37.8577 152.595 37.7983C152.535 37.727 152.458 37.6913 152.363 37.6913H144.486C144.403 37.6913 144.325 37.727 144.254 37.7983C144.195 37.8577 144.165 37.929 144.165 38.0121V41.3983C144.165 41.4933 144.195 41.5706 144.254 41.63C144.325 41.6894 144.403 41.7191 144.486 41.7191Z" fill="#070614"/>
<path d="M136.587 48.3668V35.5352H138.708V48.3668H136.587Z" fill="#070614"/>
<path d="M120.104 48.3668V35.5352H122.242V40.8639H131.082V35.5352H133.22V48.3668H131.082V43.0381H122.242V48.3668H120.104Z" fill="#070614"/>
<path d="M106.212 48.3668C105.772 48.3668 105.369 48.2599 105 48.046C104.632 47.8322 104.341 47.5411 104.127 47.1728C103.913 46.8045 103.806 46.4005 103.806 45.9609V37.9411C103.806 37.5015 103.913 37.0975 104.127 36.7292C104.341 36.3609 104.632 36.0698 105 35.8559C105.369 35.6421 105.772 35.5352 106.212 35.5352H114.232C114.671 35.5352 115.07 35.6421 115.426 35.8559C115.794 36.0698 116.085 36.3609 116.299 36.7292C116.525 37.0975 116.638 37.5015 116.638 37.9411V45.9609C116.638 46.4005 116.525 46.8045 116.299 47.1728C116.085 47.5411 115.794 47.8322 115.426 48.046C115.07 48.2599 114.671 48.3668 114.232 48.3668H106.212ZM106.266 46.2104H114.143C114.238 46.2104 114.315 46.1807 114.374 46.1213C114.446 46.0619 114.481 45.9847 114.481 45.8896V38.0124C114.481 37.9173 114.446 37.8401 114.374 37.7807C114.315 37.7213 114.238 37.6916 114.143 37.6916H106.266C106.182 37.6916 106.105 37.7213 106.034 37.7807C105.974 37.8401 105.945 37.9173 105.945 38.0124V45.8896C105.945 45.9847 105.974 46.0619 106.034 46.1213C106.105 46.1807 106.182 46.2104 106.266 46.2104Z" fill="#070614"/>
<path d="M98.0227 48.3666L94.0841 43.6616H96.8821L100.429 47.8676V48.3666H98.0227ZM87.6504 48.3666V35.5527H98.0761C98.5157 35.5527 98.9138 35.6656 99.2702 35.8913C99.6385 36.1052 99.9296 36.3963 100.143 36.7646C100.369 37.1211 100.482 37.5191 100.482 37.9587V41.4874C100.482 41.9151 100.369 42.3131 100.143 42.6814C99.9296 43.0498 99.6385 43.3409 99.2702 43.5547C98.9138 43.7686 98.5157 43.8755 98.0761 43.8755L89.789 43.8933V48.3666H87.6504ZM90.1098 41.7191H97.987C98.0821 41.7191 98.1593 41.6894 98.2187 41.63C98.29 41.5706 98.3256 41.4933 98.3256 41.3983V38.0121C98.3256 37.929 98.29 37.8577 98.2187 37.7983C98.1593 37.727 98.0821 37.6913 97.987 37.6913H90.1098C90.0266 37.6913 89.9494 37.727 89.8781 37.7983C89.8187 37.8577 89.789 37.929 89.789 38.0121V41.3983C89.789 41.4933 89.8187 41.5706 89.8781 41.63C89.9494 41.6894 90.0266 41.7191 90.1098 41.7191Z" fill="#070614"/>
<path d="M72.0679 48.3666V35.5527H82.4936C82.9332 35.5527 83.3312 35.6656 83.6877 35.8913C84.056 36.1052 84.3471 36.3963 84.5609 36.7646C84.7867 37.1211 84.8996 37.5191 84.8996 37.9587V41.4874C84.8996 41.9151 84.7867 42.3131 84.5609 42.6814C84.3471 43.0498 84.056 43.3409 83.6877 43.5547C83.3312 43.7686 82.9332 43.8755 82.4936 43.8755L74.2065 43.8933V48.3666H72.0679ZM74.5273 41.7191H82.4045C82.4996 41.7191 82.5768 41.6894 82.6362 41.63C82.7075 41.5706 82.7431 41.4933 82.7431 41.3983V38.0121C82.7431 37.929 82.7075 37.8577 82.6362 37.7983C82.5768 37.727 82.4996 37.6913 82.4045 37.6913H74.5273C74.4441 37.6913 74.3669 37.727 74.2956 37.7983C74.2362 37.8577 74.2065 37.929 74.2065 38.0121V41.3983C74.2065 41.4933 74.2362 41.5706 74.2956 41.63C74.3669 41.6894 74.4441 41.7191 74.5273 41.7191Z" fill="#070614"/>
<path d="M127.953 31.4851V25.1228H124.771V24H132.257V25.1228H129.086V31.4851H127.953Z" fill="#3030CC"/>
<path d="M119.024 31.4826L116.685 28.686H118.151L120.334 31.2746V31.4826H119.024ZM112.891 31.4826V24.0078H119.014C119.263 24.0078 119.492 24.0702 119.7 24.1949C119.908 24.3197 120.071 24.486 120.189 24.694C120.313 24.8949 120.376 25.1167 120.376 25.3593V27.4593C120.376 27.7088 120.313 27.9375 120.189 28.1454C120.071 28.3464 119.908 28.5093 119.7 28.6341C119.492 28.7519 119.263 28.8108 119.014 28.8108L114.013 28.8212V31.4826H112.891ZM114.273 27.6776H118.983C119.059 27.6776 119.121 27.6534 119.17 27.6048C119.218 27.5563 119.243 27.4974 119.243 27.4281V25.3905C119.243 25.3212 119.218 25.2623 119.17 25.2138C119.121 25.1583 119.059 25.1306 118.983 25.1306H114.273C114.204 25.1306 114.142 25.1583 114.086 25.2138C114.038 25.2623 114.013 25.3212 114.013 25.3905V27.4281C114.013 27.4974 114.038 27.5563 114.086 27.6048C114.142 27.6534 114.204 27.6776 114.273 27.6776Z" fill="#3030CC"/>
<path d="M83.9302 31.4851V24H85.2713L88.1718 27.4515L91.0619 24H92.4133V31.4851H91.2802V25.5074L88.1718 29.2084L85.0529 25.5074V31.4851H83.9302Z" fill="#3030CC"/>
<path d="M73.4194 31.4851C73.1768 31.4851 72.9515 31.4262 72.7436 31.3084C72.5357 31.1837 72.3694 31.0208 72.2446 30.8198C72.1268 30.6119 72.0679 30.3832 72.0679 30.1337V29.697H73.1906V30.1025C73.1906 30.1718 73.2149 30.2342 73.2634 30.2896C73.3189 30.3381 73.3812 30.3624 73.4505 30.3624H78.1703C78.2397 30.3624 78.2986 30.3381 78.3471 30.2896C78.3956 30.2342 78.4199 30.1718 78.4199 30.1025V28.5639C78.4199 28.4876 78.3956 28.4287 78.3471 28.3871C78.2986 28.3386 78.2397 28.3144 78.1703 28.3144H73.4194C73.1768 28.3144 72.9515 28.252 72.7436 28.1272C72.5357 28.0025 72.3694 27.8396 72.2446 27.6386C72.1268 27.4307 72.0679 27.202 72.0679 26.9525V25.3515C72.0679 25.102 72.1268 24.8767 72.2446 24.6757C72.3694 24.4678 72.5357 24.305 72.7436 24.1871C72.9515 24.0624 73.1768 24 73.4194 24H78.2015C78.4441 24 78.6694 24.0624 78.8773 24.1871C79.0852 24.305 79.2481 24.4678 79.3659 24.6757C79.4906 24.8767 79.553 25.102 79.553 25.3515V25.7881H78.4199V25.3827C78.4199 25.3134 78.3956 25.2545 78.3471 25.2059C78.2986 25.1505 78.2397 25.1228 78.1703 25.1228H73.4505C73.3812 25.1228 73.3189 25.1505 73.2634 25.2059C73.2149 25.2545 73.1906 25.3134 73.1906 25.3827V26.9213C73.1906 26.9975 73.2149 27.0599 73.2634 27.1084C73.3189 27.15 73.3812 27.1708 73.4505 27.1708H78.2015C78.4441 27.1708 78.6694 27.2332 78.8773 27.3579C79.0852 27.4827 79.2481 27.649 79.3659 27.8569C79.4906 28.0579 79.553 28.2832 79.553 28.5327V30.1337C79.553 30.3832 79.4906 30.6119 79.3659 30.8198C79.2481 31.0208 79.0852 31.1837 78.8773 31.3084C78.6694 31.4262 78.4441 31.4851 78.2015 31.4851H73.4194Z" fill="#3030CC"/>
<path d="M102.749 25.5042L106.578 31.4843H108.16L103.256 24.0586H102.232L97.2964 31.4843H98.8573L102.749 25.5042Z" fill="#3030CC"/>
</svg>
