<svg width="16" height="16" viewBox="0 0 16 16" fill="none" xmlns="http://www.w3.org/2000/svg">
<path d="M8.10671 7.24668C8.04004 7.24001 7.96004 7.24001 7.88671 7.24668C6.30004 7.19334 5.04004 5.89334 5.04004 4.29334C5.04004 2.66001 6.36004 1.33334 8.00004 1.33334C9.63337 1.33334 10.96 2.66001 10.96 4.29334C10.9534 5.89334 9.69337 7.19334 8.10671 7.24668Z" stroke="#070614" stroke-linecap="round" stroke-linejoin="round"/>
<path d="M4.77323 9.70666C3.1599 10.7867 3.1599 12.5467 4.77323 13.62C6.60657 14.8467 9.61323 14.8467 11.4466 13.62C13.0599 12.54 13.0599 10.78 11.4466 9.70666C9.6199 8.48666 6.61323 8.48666 4.77323 9.70666Z" stroke="#070614" stroke-linecap="round" stroke-linejoin="round"/>
</svg>
