<svg width="16" height="16" viewBox="0 0 16 16" fill="none" xmlns="http://www.w3.org/2000/svg">
<path d="M14.0533 5.72002V10.28C14.0533 11.0267 13.6533 11.72 13.0066 12.1L9.04661 14.3867C8.39994 14.76 7.59994 14.76 6.94661 14.3867L2.98661 12.1C2.33994 11.7267 1.93994 11.0333 1.93994 10.28V5.72002C1.93994 4.97335 2.33994 4.27999 2.98661 3.89999L6.94661 1.61333C7.59327 1.23999 8.39327 1.23999 9.04661 1.61333L13.0066 3.89999C13.6533 4.27999 14.0533 4.96668 14.0533 5.72002Z" stroke="#51515B" stroke-linecap="round" stroke-linejoin="round"/>
<path d="M7.99987 7.33333C8.85775 7.33333 9.5532 6.63787 9.5532 5.77999C9.5532 4.92211 8.85775 4.22668 7.99987 4.22668C7.14198 4.22668 6.44653 4.92211 6.44653 5.77999C6.44653 6.63787 7.14198 7.33333 7.99987 7.33333Z" stroke="#51515B" stroke-linecap="round" stroke-linejoin="round"/>
<path d="M10.6666 11.1066C10.6666 9.90665 9.47325 8.93335 7.99992 8.93335C6.52659 8.93335 5.33325 9.90665 5.33325 11.1066" stroke="#51515B" stroke-linecap="round" stroke-linejoin="round"/>
</svg>
