<svg width="16" height="16" viewBox="0 0 16 16" fill="none" xmlns="http://www.w3.org/2000/svg">
<path d="M8.00008 7.99999C9.84103 7.99999 11.3334 6.50761 11.3334 4.66666C11.3334 2.82571 9.84103 1.33333 8.00008 1.33333C6.15913 1.33333 4.66675 2.82571 4.66675 4.66666C4.66675 6.50761 6.15913 7.99999 8.00008 7.99999Z" stroke="#070614" stroke-linecap="round" stroke-linejoin="round"/>
<path d="M2.27344 14.6667C2.27344 12.0867 4.84012 10 8.00012 10" stroke="#070614" stroke-linecap="round" stroke-linejoin="round"/>
<path d="M12.1333 14.2667C13.3115 14.2667 14.2667 13.3115 14.2667 12.1333C14.2667 10.9551 13.3115 10 12.1333 10C10.9551 10 10 10.9551 10 12.1333C10 13.3115 10.9551 14.2667 12.1333 14.2667Z" stroke="#51515B" stroke-linecap="round" stroke-linejoin="round"/>
<path d="M14.6667 14.6667L14 14" stroke="#51515B" stroke-linecap="round" stroke-linejoin="round"/>
</svg>
